#tb 0: 1/22050
#media_type 0: audio
#codec_id 0: pcm_s16le
#sample_rate 0: 22050
#channel_layout_name 0: mono
0,          0,          0,    88224,   176448, 0x541ddc55
0,      88225,      88225,     1838,     3676, 0xaf455081
0,      90063,      90063,     1838,     3676, 0x27ef4e91
0,      91901,      91901,     1838,     3676, 0xd1d986a3
0,      93739,      93739,     1838,     3676, 0xaaa2b589
0,      95577,      95577,     1838,     3676, 0x6e794ff9
0,      97415,      97415,     1838,     3676, 0x266351f1
0,      99253,      99253,     1838,     3676, 0xdeae50b2
0,     101091,     101091,     1838,     3676, 0x90f1f96a
0,     102929,     102929,     1838,     3676, 0xea07adf9
0,     104767,     104767,     1838,     3676, 0xb80a8925
0,     106605,     106605,     1838,     3676, 0xc392a1da
0,     108443,     108443,     1838,     3676, 0xa076bdda
0,     110281,     110281,     1838,     3676, 0x8f40b4cc
0,     112119,     112119,     1838,     3676, 0x4227fe30
0,     113957,     113957,     1838,     3676, 0x82b31ec8
0,     115795,     115795,     1838,     3676, 0x3ba04042
0,     117633,     117633,     1838,     3676, 0x6fe7440a
0,     119471,     119471,     1838,     3676, 0x23e33177
0,     121309,     121309,     1838,     3676, 0x1f14242c
0,     123147,     123147,     1838,     3676, 0x72931fb0
0,     124985,     124985,     1838,     3676, 0x2b1351c2
0,     126823,     126823,     1838,     3676, 0x6aee7070
0,     128661,     128661,     1838,     3676, 0x237658fa
0,     130499,     130499,     1838,     3676, 0xac001143
0,     132337,     132337,     1838,     3676, 0x1921ee21
0,     134175,     134175,     1838,     3676, 0x80186091
0,     136013,     136013,     1838,     3676, 0xb7f37ede
0,     137851,     137851,     1838,     3676, 0x355227ef
0,     139689,     139689,     1838,     3676, 0xb0411f35
0,     141527,     141527,     1838,     3676, 0xe7c4fe0e
0,     143365,     143365,     1838,     3676, 0x0425984d
0,     145203,     145203,     1838,     3676, 0xfd59dea1
0,     147041,     147041,     1838,     3676, 0xa53d5aab
0,     148879,     148879,     1838,     3676, 0x8bc403c2
0,     150717,     150717,     1838,     3676, 0x7dd638c2
0,     152555,     152555,     1838,     3676, 0x284913eb
0,     154393,     154393,     1838,     3676, 0xec17e83c
0,     156231,     156231,     1838,     3676, 0x40543463
0,     158069,     158069,     1838,     3676, 0x92d81bf8
0,     159907,     159907,     1838,     3676, 0x44ef161d
0,     161745,     161745,     1838,     3676, 0x499df3d5
0,     163583,     163583,     1838,     3676, 0xf98f4d75
0,     165421,     165421,     1838,     3676, 0x8ffe2681
0,     167259,     167259,     1838,     3676, 0x84093bfd
0,     169097,     169097,     1838,     3676, 0x5f9c2e32
0,     170935,     170935,     1838,     3676, 0x8f93c29b
0,     172773,     172773,     1838,     3676, 0xf0ada687
0,     174611,     174611,     1838,     3676, 0x30019db2
0,     176449,     176449,     1838,     3676, 0x06ebace3
0,     178287,     178287,     1838,     3676, 0xc293d944
0,     180125,     180125,     1838,     3676, 0x789ff65e
0,     181963,     181963,     1838,     3676, 0xa2ae13c1
0,     183801,     183801,     1838,     3676, 0xb64f1cd9
0,     185639,     185639,     1838,     3676, 0x18f4e36a
0,     187477,     187477,     1838,     3676, 0xe9ccd0f0
0,     189315,     189315,     1838,     3676, 0xc215b4ab
0,     191153,     191153,     1838,     3676, 0x45b5c410
0,     192991,     192991,     1838,     3676, 0xf84a9939
0,     194829,     194829,     1838,     3676, 0xc8aff71e
0,     196667,     196667,     1838,     3676, 0x76cc3afc
0,     198505,     198505,     1838,     3676, 0x524e1dd6
0,     200343,     200343,     1838,     3676, 0x115a3f10
0,     202181,     202181,     1838,     3676, 0xd2bb51d1
0,     204019,     204019,     1838,     3676, 0xe1dbfca5
0,     205857,     205857,     1838,     3676, 0xc428f070
0,     207695,     207695,     1838,     3676, 0x6aa4dddf
0,     209533,     209533,     1838,     3676, 0xa0428f08
0,     211371,     211371,     1838,     3676, 0x8fd7e256
0,     213209,     213209,     1838,     3676, 0x41cb1787
0,     215047,     215047,     1838,     3676, 0xe348568e
0,     216885,     216885,     1838,     3676, 0x79091a0c
0,     218723,     218723,     1838,     3676, 0x592f6f2e
0,     220561,     220561,     1838,     3676, 0xa151448f
0,     222399,     222399,     1838,     3676, 0xb3402e7a
0,     224237,     224237,     1838,     3676, 0x74112e27
0,     226075,     226075,     1838,     3676, 0xba090659
0,     227913,     227913,     1838,     3676, 0xa0451f81
0,     229751,     229751,     1838,     3676, 0x09c7393a
0,     231589,     231589,     1838,     3676, 0xceb4e340
0,     233427,     233427,     1838,     3676, 0x0440291a
0,     235265,     235265,     1838,     3676, 0xb7b930c4
0,     237103,     237103,     1838,     3676, 0x1a2afa4a
0,     238941,     238941,     1838,     3676, 0x414fee56
0,     240779,     240779,     1838,     3676, 0x5e26bc97
0,     242617,     242617,     1838,     3676, 0x780e0481
0,     244455,     244455,     1838,     3676, 0xb6dfb9c5
0,     246293,     246293,     1838,     3676, 0x447b36ca
0,     248131,     248131,     1838,     3676, 0x601c3067
0,     249969,     249969,     1838,     3676, 0x199f2f8d
0,     251807,     251807,     1838,     3676, 0x98645b08
